<mxfile host="65bd71144e">
    <diagram id="bXhtw739eIVRdLmtH32Q" name="Page-1">
        <mxGraphModel dx="1156" dy="1160" grid="0" gridSize="10" guides="1" tooltips="1" connect="1" arrows="1" fold="1" page="1" pageScale="1" pageWidth="827" pageHeight="1169" math="0" shadow="0">
            <root>
                <mxCell id="0"/>
                <mxCell id="1" parent="0"/>
                <mxCell id="19" value="" style="whiteSpace=wrap;html=1;dashed=1;sketch=0;fontFamily=Helvetica;fontSize=12;fontColor=none;strokeColor=#999999;fillColor=none;gradientColor=#945DF2;gradientDirection=north;noLabel=1;" parent="1" vertex="1">
                    <mxGeometry x="273" y="148" width="426" height="289" as="geometry"/>
                </mxCell>
                <mxCell id="22" value="" style="whiteSpace=wrap;html=1;dashed=1;sketch=0;fontFamily=Helvetica;fontSize=12;fontColor=none;strokeColor=#999999;fillColor=none;gradientColor=#945DF2;gradientDirection=north;noLabel=1;" vertex="1" parent="1">
                    <mxGeometry x="516.5" y="199" width="165" height="229" as="geometry"/>
                </mxCell>
                <mxCell id="21" value="" style="whiteSpace=wrap;html=1;dashed=1;sketch=0;fontFamily=Helvetica;fontSize=12;fontColor=none;strokeColor=#999999;fillColor=none;gradientColor=#945DF2;gradientDirection=north;noLabel=1;" vertex="1" parent="1">
                    <mxGeometry x="299" y="199" width="165" height="229" as="geometry"/>
                </mxCell>
                <mxCell id="10" style="edgeStyle=none;html=1;entryX=0;entryY=0.5;entryDx=0;entryDy=0;entryPerimeter=0;" parent="1" source="2" target="3" edge="1">
                    <mxGeometry relative="1" as="geometry"/>
                </mxCell>
                <mxCell id="2" value="bastion_host" style="outlineConnect=0;dashed=0;verticalLabelPosition=bottom;verticalAlign=top;align=center;html=1;shape=mxgraph.aws3.ec2;fillColor=#F58534;gradientColor=none;" parent="1" vertex="1">
                    <mxGeometry x="330" y="207.5" width="76.5" height="93" as="geometry"/>
                </mxCell>
                <mxCell id="3" value="OpenSearch" style="sketch=0;points=[[0,0,0],[0.25,0,0],[0.5,0,0],[0.75,0,0],[1,0,0],[0,1,0],[0.25,1,0],[0.5,1,0],[0.75,1,0],[1,1,0],[0,0.25,0],[0,0.5,0],[0,0.75,0],[1,0.25,0],[1,0.5,0],[1,0.75,0]];outlineConnect=0;fontColor=#232F3E;gradientColor=#945DF2;gradientDirection=north;fillColor=#5A30B5;strokeColor=#ffffff;dashed=0;verticalLabelPosition=bottom;verticalAlign=top;align=center;html=1;fontSize=12;fontStyle=0;aspect=fixed;shape=mxgraph.aws4.resourceIcon;resIcon=mxgraph.aws4.elasticsearch_service;" parent="1" vertex="1">
                    <mxGeometry x="560" y="215" width="78" height="78" as="geometry"/>
                </mxCell>
                <mxCell id="9" style="edgeStyle=none;html=1;" parent="1" source="8" target="2" edge="1">
                    <mxGeometry relative="1" as="geometry"/>
                </mxCell>
                <mxCell id="8" value="https://localhost:9200" style="aspect=fixed;perimeter=ellipsePerimeter;html=1;align=center;shadow=0;dashed=0;fontColor=#4277BB;labelBackgroundColor=#ffffff;fontSize=12;spacingTop=3;image;image=img/lib/ibm/users/browser.svg;" parent="1" vertex="1">
                    <mxGeometry x="100" y="218" width="75" height="75" as="geometry"/>
                </mxCell>
                <mxCell id="11" value="SSH" style="text;html=1;align=center;verticalAlign=middle;resizable=0;points=[];autosize=1;strokeColor=none;fillColor=none;" parent="1" vertex="1">
                    <mxGeometry x="170" y="230" width="40" height="20" as="geometry"/>
                </mxCell>
                <mxCell id="12" value="HTTPS" style="text;html=1;align=center;verticalAlign=middle;resizable=0;points=[];autosize=1;strokeColor=none;fillColor=none;" parent="1" vertex="1">
                    <mxGeometry x="409" y="230" width="50" height="20" as="geometry"/>
                </mxCell>
                <mxCell id="25" value="443" style="edgeStyle=none;html=1;dashed=1;" edge="1" parent="1" source="17" target="18">
                    <mxGeometry relative="1" as="geometry"/>
                </mxCell>
                <mxCell id="17" value="secgroup-bastion-host" style="sketch=0;aspect=fixed;html=1;points=[];align=center;image;fontSize=12;image=img/lib/mscae/Network_Security_Groups_Classic.svg;dashed=0;fontFamily=Helvetica;fontColor=#232F3E;strokeColor=#ffffff;fillColor=#5A30B5;gradientColor=#945DF2;gradientDirection=north;" parent="1" vertex="1">
                    <mxGeometry x="349.75" y="340" width="37" height="50" as="geometry"/>
                </mxCell>
                <mxCell id="18" value="secgroup-opensearch-default" style="sketch=0;aspect=fixed;html=1;points=[];align=center;image;fontSize=12;image=img/lib/mscae/Network_Security_Groups_Classic.svg;dashed=0;fontFamily=Helvetica;fontColor=#232F3E;strokeColor=#ffffff;fillColor=#5A30B5;gradientColor=#945DF2;gradientDirection=north;" parent="1" vertex="1">
                    <mxGeometry x="580.5" y="340" width="37" height="50" as="geometry"/>
                </mxCell>
                <mxCell id="20" value="VPC" style="text;html=1;align=center;verticalAlign=middle;resizable=0;points=[];autosize=1;strokeColor=none;fillColor=none;" vertex="1" parent="1">
                    <mxGeometry x="656" y="154" width="35" height="18" as="geometry"/>
                </mxCell>
                <mxCell id="23" value="Public Subnet" style="text;html=1;align=left;verticalAlign=middle;resizable=0;points=[];autosize=1;strokeColor=none;fillColor=none;" vertex="1" parent="1">
                    <mxGeometry x="297" y="179" width="84" height="18" as="geometry"/>
                </mxCell>
                <mxCell id="24" value="Private Subnet" style="text;html=1;align=left;verticalAlign=middle;resizable=0;points=[];autosize=1;strokeColor=none;fillColor=none;" vertex="1" parent="1">
                    <mxGeometry x="516.5" y="179" width="89" height="18" as="geometry"/>
                </mxCell>
            </root>
        </mxGraphModel>
    </diagram>
</mxfile>